<!-- icon666.com - MILLIONS vector ICONS FREE --><svg version="1.1" id="Capa_1" xmlns="http://www.w3.org/2000/svg" xmlns:xlink="http://www.w3.org/1999/xlink" x="0px" y="0px" viewBox="0 0 420.311 420.311" style="enable-background:new 0 0 420.311 420.311;" xml:space="preserve"><g><g><g><path d="M211.27,398.512H61.393V46.925h32.359c0-8.157,3.094-15.597,8.155-21.238H61.392 c-11.71-0.001-21.237,9.528-21.237,21.238v351.587c0,11.711,9.527,21.236,21.238,21.236h167.004 C221.612,413.655,215.821,406.482,211.27,398.512z"></path><path d="M303.447,46.925l0.007,226.392c5.223,1.139,10.315,2.749,15.22,4.852l6.013-6.01V46.925 c0-11.71-9.527-21.238-21.237-21.238h-40.515c5.06,5.642,8.152,13.081,8.152,21.238H303.447z"></path><path d="M125.609,74.756H239.23c5.864,0,10.618-4.753,10.618-10.619V42.369c0-5.864-4.754-10.619-10.618-10.619h-6.902V10.618 C232.328,4.755,227.575,0,221.71,0h-78.58c-5.864,0-10.618,4.755-10.618,10.618V31.75h-6.902 c-5.865,0-10.618,4.755-10.618,10.619v21.768C114.991,70.003,119.744,74.756,125.609,74.756z"></path><path d="M116.776,109.727c0-0.646-0.525-1.172-1.172-1.172H87.132c-0.647,0-1.171,0.525-1.171,1.172v28.472 c0,0.647,0.523,1.172,1.171,1.172h28.472c0.646,0,1.172-0.524,1.172-1.172V109.727z"></path><path d="M268.259,113.344H135.524c-5.862,0-10.617,4.755-10.617,10.619c0,5.864,4.755,10.618,10.617,10.618h132.733 c5.865,0,10.619-4.754,10.619-10.618C278.878,118.099,274.125,113.344,268.259,113.344z"></path><path d="M116.776,173.44c0-0.647-0.525-1.172-1.172-1.172H87.132c-0.647,0-1.171,0.524-1.171,1.172v28.472 c0,0.646,0.523,1.172,1.171,1.172h28.472c0.646,0,1.172-0.525,1.172-1.172V173.44z"></path><path d="M268.259,177.057H135.524c-5.862,0-10.617,4.755-10.617,10.618c0,5.865,4.755,10.619,10.617,10.619h132.733 c5.865,0,10.619-4.754,10.619-10.619C278.879,181.813,274.125,177.057,268.259,177.057z"></path><path d="M115.604,235.981H87.132c-0.647,0-1.171,0.523-1.171,1.172v28.472c0,0.646,0.523,1.172,1.171,1.172h28.472 c0.646,0,1.172-0.523,1.172-1.172v-28.472C116.776,236.506,116.251,235.981,115.604,235.981z"></path><path d="M268.259,240.771H135.524c-5.862,0-10.617,4.754-10.617,10.617c0,5.865,4.755,10.619,10.617,10.619h132.733 c5.865,0,10.619-4.754,10.619-10.619C278.879,245.524,274.125,240.771,268.259,240.771z"></path><path d="M380.155,309.885c0-4.586-1.785-8.896-5.028-12.14L362.283,284.9c-3.243-3.242-7.554-5.026-12.138-5.026 c-4.582,0-8.896,1.784-12.141,5.028l-19.602,19.6c-10.469-7.506-23.303-11.927-37.168-11.927 c-35.274,0-63.868,28.595-63.868,63.868c0,35.271,28.594,63.867,63.868,63.867c35.271,0,63.867-28.597,63.867-63.867 c0-1.43-0.05-2.848-0.146-4.253l30.166-30.167C378.369,318.782,380.155,314.471,380.155,309.885z M361.188,313.703 l-61.428,61.428c-1.297,1.294-3.053,2.021-4.883,2.021h-0.003c-1.832,0-3.587-0.729-4.881-2.024l-28.465-28.509 c-2.691-2.695-2.689-7.064,0.003-9.758l5.483-5.48c2.69-2.692,7.058-2.695,9.755-0.006l18.104,18.057l51.021-51.021 c1.295-1.294,3.051-2.021,4.881-2.021s3.586,0.729,4.881,2.021l5.531,5.531C363.883,306.639,363.883,311.008,361.188,313.703z"></path></g></g></g></svg>